<svg xmlns="http://www.w3.org/2000/svg" width="512" height="512"><path d="M511.844 208.776c-1.068-22.717-9.485-43.586-24.052-60.277 2.604-3.078 5.418-6.955 8.128-11.786 10.063-17.933 14.22-40.42 12.355-66.835l-29.968 2.116c2.363 33.467-7.588 50.275-13.42 57.12-31.467-18.979-71.603-16.317-109.745 7.916-29.597 18.803-50.769 46.009-71.247 72.32-8.631 11.089-16.784 21.563-25.557 31.494-33.403 37.814-75.883 55.916-133.683 56.968-6.776.117-15.948-.898-25.669-1.98-30-3.337-67.335-7.493-88.781 15.05-19.348 20.339-8.59 50.732 10.655 71.829 29.553 32.401 69.742 42.591 108.371 50.253 30.746 6.098 60.788 9.157 89.764 9.156 14.065 0 27.883-.721 41.4-2.165 64.784-6.921 125.095-31.298 169.821-68.64 39.627-33.084 84.78-95.501 81.628-162.539zM410.966 348.252c-40.214 33.575-94.821 55.534-153.76 61.83-38.345 4.094-79.436 1.88-122.128-6.587-35.124-6.966-68.592-15.345-92.02-41.029-8.303-9.103-16.774-24.896-11.084-30.877 6.133-6.447 17.674-8.377 30.709-8.377 10.71 0 22.428 1.304 32.982 2.478 10.712 1.192 20.837 2.334 29.539 2.158 65.903-1.199 116.816-23.152 155.653-67.115 9.391-10.631 18.215-21.968 26.749-32.932 10.115-12.998 19.949-25.618 30.511-36.997l43.783 8.18-3.038 61.443 63.273-17.795 19.135 43.314.883-.391c-13.47 24.797-32.221 46.862-51.187 62.697zm66.422-100.158l-18.306-41.436-48.154 13.542 2.272-45.931-46.689-8.722a130.479 130.479 0 0 1 4.741-3.159c11.585-7.357 51.933-29.321 84.768-2.902 15.704 12.636 24.872 30.642 25.814 50.701.595 12.627-1.076 25.382-4.446 37.907z" fill="#FFF"/></svg>