<svg xmlns="http://www.w3.org/2000/svg" viewBox="0 0 312.106 312.106" width="512" height="512"><path d="M25.784 151.402zm284.342-28.641c-4.373-15.342-16.194-33.858-35.131-55.034-29.5-31.77-65.974-47.721-119.206-47.721-48.887 0-92.327 16.76-121.486 47.478-47.824 50.153-35.192 80.48-23.752 91.435a33.326 33.326 0 0 0 5.108 4.006v28.203c0 27.477 14.925 53.126 42.025 72.226 26.303 18.538 61.145 28.747 98.104 28.747 36.959 0 71.8-10.209 98.104-28.747 27.101-19.1 42.026-44.75 42.026-72.226v-27.692c.022-.012.04-.019.063-.031 3.968-2.099 7.443-5.013 10.051-8.428 4.409-5.777 8.699-16.055 4.094-32.216zM155.789 277.1c-67.098 0-122.021-36.475-124.996-82.079 2.607 8.145 7.434 16.192 18.359 21.584.145.072.293.139.442.201 17.139 7.116 28.854-.096 38.269-5.891 7.738-4.763 12.832-7.59 19.719-5.874.218.055.438.1.661.134 4.094.639 5.562 5.626 7.936 16.852 3.31 15.649 8.311 39.299 39.295 40.653.108.005.55.004.662-.001 31.856-1.422 36.564-25.239 39.68-40.999 2.347-11.871 3.765-15.919 7.534-16.501.228-.035.452-.08.676-.136 6.887-1.721 11.98 1.11 19.717 5.874 9.416 5.798 21.133 13.01 38.277 5.892a7.66 7.66 0 0 0 .442-.201c10.948-5.401 15.797-14.191 18.394-22.864-2.022 46.2-57.344 83.356-125.067 83.356zm140.633-135.852c-1.898 8.054-10.323 10.051-10.571 10.142-13.139 4.066-15.326 16.914-17.082 27.273-2.067 12.197-3.965 19.955-12.729 24.389-9.457 3.842-15.182.789-24.433-4.905-7.89-4.856-17.689-10.892-30.894-7.732-14.493 2.454-17.329 16.808-19.612 28.359-3.415 17.275-6.475 27.945-25.303 28.907-18.143-.917-21.305-11.545-24.943-28.755-2.456-11.612-5.507-26.042-19.955-28.514-13.201-3.164-23.01 2.873-30.899 7.732-9.25 5.694-14.972 8.745-24.427 4.903-9.105-4.591-10.806-11.75-12.811-23.002-1.729-9.707-3.884-21.773-15.956-28.166-.045-.025-9.045-3.262-10.77-12.45-1.532-8.161-.196-26.885 31.824-61.814.033-.036.062-.077.094-.114.02-.021.041-.039.06-.062 22.544-26.172 63.84-42.431 107.774-42.431 48.604 0 86.778 14.947 107.494 42.089.048.063.102.116.151.176.075.093.143.187.224.276 2.155 2.407 25.404 34.833 5.093 54.991-15.639 15.52-49.045 26.818-90.018 29.569-37.443 2.513-74.296-2.605-91.693-12.74-18.096-10.542-28.061-24.116-28.061-38.223.001-14.106 9.966-27.68 28.061-38.22 31.766-18.508 83.453-18.508 115.221 0 10.717 6.243 16.619 14.102 16.619 22.128 0 8.027-5.902 15.886-16.619 22.128-19.246 11.215-51.77 11.217-71.021-.001-5.907-3.44-9.296-7.752-9.296-11.828s3.388-8.387 9.296-11.827c11.297-6.584 31.673-8.183 42.03-.466 2.095 1.561 3.351 3.675 3.199 5.387-.104 1.162-.951 2.15-2.523 2.935-3.507 1.754-13.461 2.739-16.063-2.253a7.496 7.496 0 0 0-10.116-3.187 7.497 7.497 0 0 0-3.186 10.116c7.125 13.68 25.851 13.85 36.074 8.739 6.267-3.133 10.187-8.611 10.755-15.029.619-6.99-2.813-13.995-9.18-18.738-16.089-11.984-42.914-9.572-58.542-.467-10.798 6.289-16.745 15.092-16.745 24.788 0 9.697 5.947 18.502 16.746 24.791 24.148 14.069 61.978 14.071 86.122 0 15.521-9.041 24.068-21.502 24.068-35.089s-8.548-26.048-24.068-35.089c-17.525-10.21-40.667-15.833-65.162-15.833s-47.636 5.623-65.16 15.833c-22.898 13.34-35.509 31.516-35.51 51.18 0 19.666 12.61 37.844 35.51 51.185 16.771 9.771 46.98 15.418 80.262 15.418 6.569 0 13.259-.221 19.987-.673 45.22-3.036 81.575-15.449 99.744-34.056 5.828-5.968 11.246-14.003 13.225-24.225 5.075 11.334 4.681 18.354 3.715 22.455z" fill="#FFF"/></svg>