<svg xmlns="http://www.w3.org/2000/svg" viewBox="0 0 63.081 63.081" width="512" height="512"><g fill="#FFF"><path d="M32.343 63.081c-.238 0-.491-.009-.758-.028a10.78 10.78 0 0 1-.761.028c-1.864 0-3.258-.542-4.144-1.61a3.793 3.793 0 0 1-.428-.639c-1.343.676-2.629 1.018-3.842 1.018-4.454 0-5.859-4.362-5.926-4.547-.058-.163.125-.334.125-.507V23.481c0-2.594 1.976-5.357 2.648-6.141l7.807-8.84c.284-.318.584-.5 1.011-.5h7.794c.454 0 .883.205 1.168.559l7.315 8.814c1.501 1.755 2.257 4.393 2.257 6.108v33.315c0 .132-.231.264-.265.392-.438 1.613-2.296 4.662-5.798 4.662-1.135 0-2.41-.327-3.703-.971a3.813 3.813 0 0 1-.397.577c-.842 1.078-2.241 1.625-4.103 1.625zm-.758-3.032c.041 0 .082.001.122.004 1.193.099 2.046-.072 2.342-.436.25-.307.15-.832.149-.836a1.524 1.524 0 0 1 .643-1.576 1.497 1.497 0 0 1 1.686.016c1.504 1.065 3.07 1.629 4.126 1.629 1.777 0 1.956-1.733 2.956-2.29V23.481c0-1.538-.769-3.261-1.565-4.192L35.151 11h-6.406l-7.231 8.314c-1.238 1.45-1.905 3.173-1.905 4.167v33.013c0 .611 1.055 2.356 3.014 2.356 1.145 0 2.391-.549 3.917-1.629.5-.354 1.11-.229 1.623.099.515.33.751.68.638 1.68h-.013c.001 0-.07.373.219.708.351.403 1.216.515 2.459.415.04-.004.078-.074.119-.074z"/><path d="M46.609 40.5a1.5 1.5 0 0 1-1.5 1.5h-27a1.5 1.5 0 0 1-1.5-1.5v-11a1.5 1.5 0 0 1 1.5-1.5h27a1.5 1.5 0 0 1 1.5 1.5v11zm-27-1.5h24v-8h-24v8zm20-29.5a1.5 1.5 0 0 1-1.5 1.5h-13a1.5 1.5 0 0 1-1.5-1.5v-8a1.5 1.5 0 0 1 1.5-1.5h13a1.5 1.5 0 0 1 1.5 1.5v8zm-13-1.5h10V3h-10v5z"/></g></svg>